<svg xmlns="http://www.w3.org/2000/svg" xmlns:xlink="http://www.w3.org/1999/xlink" version="1.1" baseProfile="full" viewBox="0 0 200 200" width="200" height="200">
<path d="M22,57 L22,47 73,47 73,167 Q73,187 49.25,187 L49.25,177 Q63,177 63,167 L63,57 22,57 Z" fill="black" />
<path d="M15,91 L15,81 56.35,81 Q51.83,147.7 14.91,174.07 L9.09,165.93 Q42.17,142.3 45.65,91 L15,91 Z" fill="black" />
<path d="M102.93,65.09 L111.07,70.91 Q100.78,85.31 83.43,101.64 L76.57,94.36 Q93.22,78.69 102.93,65.09 Z" fill="black" />
<path d="M65.06,59.78 L74.94,58.22 Q91.36,162.57 178.71,175.05 L177.29,184.95 Q82.64,171.43 65.06,59.78 Z" fill="black" />
<path d="M32.84,21.86 L35.16,12.14 Q57.34,17.42 72.25,30.2 L65.75,37.8 Q52.66,26.58 32.84,21.86 Z" fill="black" />
<path d="M125,152 L115,152 115,27 178,27 178,152 168,152 168,37 125,37 125,152 Z" fill="black" />
<path d="M120,88 L120,78 173,78 173,88 120,88 Z" fill="black" />
<path d="M120,142 L120,132 173,132 173,142 120,142 Z" fill="black" />
</svg>

