<svg xmlns="http://www.w3.org/2000/svg" xmlns:xlink="http://www.w3.org/1999/xlink" version="1.1" baseProfile="full" viewBox="0 0 200 200" width="200" height="200" stroke-linecap="round" stroke-linejoin="round" fill="transparent" stroke="black" >
<path d="M24.82,115 L24.82,28 L80.24,28" stroke-width="5" />
<path d="M50.9,28 L50.9,110" stroke-width="5" />
<path d="M24.82,56 L79.42,56" stroke-width="5" />
<path d="M24.82,83 L79.42,83" stroke-width="5" />
<path d="M24.82,110 L73.72,110 Q75.35,156 69.64,167.12 Q61.49,183 45.87,183" stroke-width="5" />
<path d="M24,124 Q26.45,160 15.86,172" stroke-width="5" />
<path d="M32.16,127 Q38.67,147 36.23,164" stroke-width="5" />
<path d="M40.3,124 Q49.27,138 50.09,155" stroke-width="5" />
<path d="M47.64,118 Q58.23,127 61.49,142" stroke-width="5" />
<path d="M135.2,16 Q115.4,64 81.2,87" stroke-width="5" />
<path d="M133.4,19 Q153.8,60 181.4,77" stroke-width="5" />
<path d="M113,69 L153.8,69" stroke-width="5" />
<path d="M99.2,126 L99.2,90 L124.4,90 L124.4,126" stroke-width="5" />
<path d="M99.2,121 L124.4,121" stroke-width="5" />
<path d="M143.6,126 L143.6,90 L168.8,90 L168.8,126" stroke-width="5" />
<path d="M143.6,121 L168.8,121" stroke-width="5" />
<path d="M113.6,132 Q106.4,166 83.6,188" stroke-width="5" />
<path d="M110,152 Q120.8,160 128,176" stroke-width="5" />
<path d="M158,132 Q149.6,170 128,188" stroke-width="5" />
<path d="M154.4,152 Q167.6,162 178.4,185" stroke-width="5" />
</svg>

