<svg xmlns="http://www.w3.org/2000/svg" xmlns:xlink="http://www.w3.org/1999/xlink" version="1.1" baseProfile="full" viewBox="0 0 200 200" width="200" height="200" stroke-linecap="round" stroke-linejoin="round" fill="transparent" stroke="black" >
<path d="M28.25,20 Q48.13,28 55.78,41" stroke-width="5" />
<path d="M12.18,68 Q32.07,75 40.48,89" stroke-width="5" />
<path d="M13.71,133 Q44.31,142 41.25,184" stroke-width="5" />
<path d="M36.66,150 Q40.48,139 68.79,58" stroke-width="5" />
<path d="M97.06,13 Q123.56,23 138.4,42" stroke-width="5" />
<path d="M71.62,60 L124.62,60 L124.62,170.5 Q124.62,183 109,183" stroke-width="5" />
<path d="M66.32,93 L101.3,93 Q94.94,141 62.08,170" stroke-width="5" />
<path d="M178.68,64 Q164.9,81 139.46,103" stroke-width="5" />
<path d="M128.86,69 Q144.76,137 182.92,163" stroke-width="5" />
</svg>

